<svg id="Capa_1" enable-background="new 0 0 511.996 511.996" height="512" viewBox="0 0 511.996 511.996" width="512" xmlns="http://www.w3.org/2000/svg"><g><path d="m454.031 330.654c-4.883 0-9.595.738-14.037 2.1l-27.421-27.42c-4.186-4.187-9.982-6.587-15.903-6.587h-13.927v-20.26h38.941c8.074 15.142 24.024 25.475 42.349 25.475 26.447 0 47.963-21.516 47.963-47.963s-21.516-47.963-47.963-47.963c-18.315 0-34.259 10.323-42.336 25.452h-38.954v-20.25h13.927c5.921 0 11.718-2.401 15.903-6.587l27.407-27.407c4.446 1.365 9.163 2.104 14.05 2.104 26.445 0 47.96-21.52 47.96-47.97 0-26.445-21.515-47.96-47.96-47.96-6.297 0-12.434 1.208-18.239 3.592-3.832 1.573-5.662 5.955-4.09 9.787 1.573 3.831 5.954 5.664 9.787 4.089 3.989-1.638 8.209-2.468 12.542-2.468 18.174 0 32.96 14.786 32.96 32.96 0 18.18-14.786 32.97-32.96 32.97s-32.96-14.791-32.96-32.97c0-4.805 1.004-9.422 2.983-13.725 1.731-3.763.084-8.217-3.679-9.948-3.766-1.732-8.217-.084-9.948 3.679-2.891 6.283-4.356 13.01-4.356 19.995 0 4.881.737 9.593 2.099 14.034l-20.825 20.826h-7.369c-5.619-16.186-19.303-28.621-36.225-32.481v-11.103l20.825-20.824c4.444 1.364 9.159 2.102 14.044 2.102 26.447 0 47.964-21.516 47.964-47.963s-21.517-47.963-47.964-47.963-47.963 21.516-47.963 47.963c0 4.882.738 9.594 2.1 14.036l-27.42 27.421c-4.186 4.186-6.586 9.982-6.586 15.903v19.164h-20.26v-44.182c15.141-8.074 25.474-24.023 25.474-42.347-.001-26.447-21.518-47.963-47.964-47.963-26.447 0-47.964 21.516-47.964 47.964.001 18.315 10.324 34.259 25.454 42.336v44.188h-20.25v-19.164c0-5.921-2.401-11.718-6.587-15.903l-27.412-27.413c1.364-4.445 2.103-9.161 2.103-14.047 0-26.447-21.516-47.963-47.963-47.963s-47.964 21.516-47.964 47.963 21.517 47.963 47.964 47.963c4.881 0 9.593-.738 14.034-2.099l20.826 20.825v14.75c-11.993 5.759-21.346 16.154-25.748 28.844h-17.836l-20.825-20.826c1.363-4.443 2.101-9.157 2.101-14.041 0-26.447-21.517-47.963-47.964-47.963s-47.963 21.516-47.963 47.963 21.516 47.963 47.963 47.963c4.884 0 9.597-.738 14.04-2.101l27.418 27.417c4.186 4.187 9.982 6.587 15.903 6.587h24.397v20.26h-49.414c-8.073-15.139-24.021-25.47-42.343-25.47-26.45 0-47.97 21.515-47.97 47.96 0 19.899 11.972 37.439 30.499 44.685 3.861 1.51 8.209-.396 9.716-4.253 1.509-3.858-.396-8.208-4.253-9.717-12.733-4.979-20.962-17.035-20.962-30.714 0-18.174 14.79-32.96 32.97-32.96 18.174 0 32.96 14.786 32.96 32.96 0 13.678-8.225 25.734-20.953 30.716-3.857 1.51-5.761 5.86-4.251 9.718 1.158 2.959 3.989 4.769 6.986 4.769.909 0 1.834-.167 2.731-.518 11.011-4.31 19.704-12.257 24.945-22.175h49.339v20.25h-24.397c-5.921 0-11.718 2.401-15.903 6.587l-27.413 27.413c-4.444-1.364-9.159-2.102-14.045-2.102-26.447 0-47.963 21.516-47.963 47.963s21.516 47.963 47.963 47.963 47.964-21.516 47.964-47.963c0-4.882-.738-9.595-2.1-14.037l20.824-20.825h17.838c4.404 12.69 13.76 23.085 25.756 28.842v14.742l-20.828 20.827c-4.443-1.363-9.157-2.101-14.041-2.101-26.447 0-47.964 21.516-47.964 47.963s21.517 47.963 47.964 47.963 47.963-21.516 47.963-47.963c0-4.883-.738-9.596-2.101-14.039l27.421-27.421c4.186-4.186 6.586-9.982 6.586-15.903v-19.16h20.26v44.178c-15.141 8.074-25.474 24.023-25.474 42.347 0 26.447 21.517 47.963 47.964 47.963s47.964-21.516 47.964-47.963c0-18.316-10.324-34.26-25.454-42.337v-44.188h20.25v19.16c0 5.921 2.401 11.718 6.587 15.903l27.413 27.413c-1.364 4.445-2.103 9.161-2.103 14.047 0 26.447 21.516 47.963 47.963 47.963s47.964-21.516 47.964-47.963-21.517-47.963-47.964-47.963c-4.881 0-9.593.738-14.034 2.099l-20.827-20.824v-11.102c16.922-3.863 30.605-16.303 36.22-32.492h7.364l20.826 20.827c-1.364 4.444-2.102 9.159-2.102 14.044 0 26.447 21.517 47.963 47.964 47.963s47.963-21.516 47.963-47.963-21.516-47.963-47.964-47.963zm10.002-107.619c18.176 0 32.963 14.787 32.963 32.963s-14.787 32.963-32.963 32.963c-18.177 0-32.964-14.787-32.964-32.963s14.787-32.963 32.964-32.963zm-439.027-89.656c0-18.176 14.787-32.963 32.963-32.963 18.177 0 32.964 14.787 32.964 32.963s-14.787 32.963-32.964 32.963c-18.176 0-32.963-14.787-32.963-32.963zm90.324 64.867c-1.973 0-3.902-.799-5.296-2.193l-23.892-23.892c4.065-2.961 7.647-6.543 10.608-10.608l19.496 19.496c1.407 1.407 3.314 2.197 5.304 2.197h18.213c-.013.463-.035.923-.035 1.389v13.611zm-19.98 65.26c.381-2.454.58-4.962.58-7.51s-.204-5.049-.589-7.49h44.387v15zm-37.381 148.075c-18.176 0-32.963-14.787-32.963-32.963s14.787-32.963 32.963-32.963c18.177 0 32.964 14.787 32.964 32.963s-14.787 32.963-32.964 32.963zm63.581-82.825c-1.989 0-3.896.79-5.304 2.197l-19.493 19.493c-2.961-4.065-6.542-7.647-10.607-10.609l23.888-23.889c1.394-1.394 3.323-2.193 5.296-2.193h24.397v13.604c0 .468.022.931.035 1.396h-18.212zm257.069-303.753c18.177 0 32.964 14.787 32.964 32.963s-14.787 32.964-32.964 32.964c-18.176 0-32.963-14.787-32.963-32.963s14.787-32.964 32.963-32.964zm-64.869 90.323c0-1.972.8-3.903 2.193-5.297l23.892-23.892c2.961 4.065 6.542 7.647 10.607 10.609l-19.496 19.496c-1.406 1.406-2.196 3.314-2.196 5.303v12.944h-15zm-90.714-67.361c0-18.176 14.787-32.963 32.964-32.963 18.176 0 32.963 14.788 32.964 32.963 0 18.176-14.787 32.963-32.964 32.963-18.176.001-32.963-14.787-32.964-32.963zm25.454 47.371c2.448.387 4.955.592 7.51.592 2.548 0 5.049-.204 7.49-.589v39.15h-15zm-148.073-37.373c0-18.176 14.787-32.963 32.964-32.963 18.176 0 32.963 14.787 32.963 32.963s-14.787 32.963-32.963 32.963c-18.177 0-32.964-14.787-32.964-32.963zm80.626 58.28-19.494-19.494c4.066-2.961 7.648-6.542 10.61-10.607l23.888 23.888c1.394 1.394 2.193 3.324 2.193 5.296v19.164h-8.367c-2.25 0-4.461.164-6.633.452v-13.396c0-1.989-.79-3.897-2.197-5.303zm-47.662 370.75c-18.177 0-32.964-14.787-32.964-32.963s14.787-32.963 32.964-32.963c18.176 0 32.963 14.787 32.963 32.963s-14.787 32.963-32.963 32.963zm64.869-90.327c0 1.972-.8 3.903-2.193 5.297l-23.894 23.894c-2.961-4.065-6.543-7.647-10.608-10.609l19.499-19.498c1.406-1.406 2.196-3.314 2.196-5.303v-13.391c2.169.288 4.377.451 6.623.451h8.377zm90.714 67.365c0 18.176-14.787 32.963-32.964 32.963s-32.964-14.787-32.964-32.963 14.787-32.963 32.964-32.963 32.964 14.786 32.964 32.963zm-25.454-47.371c-2.448-.387-4.955-.592-7.51-.592-2.548 0-5.049.204-7.49.589v-39.15h15zm148.073 37.369c0 18.176-14.787 32.963-32.964 32.963-18.176 0-32.963-14.787-32.963-32.963s14.787-32.963 32.963-32.963c18.177 0 32.964 14.787 32.964 32.963zm-61.132-38.786c-4.066 2.961-7.648 6.542-10.61 10.607l-23.888-23.888c-1.394-1.394-2.193-3.324-2.193-5.296v-19.16h15v12.94c0 1.989.79 3.897 2.197 5.303zm17.292-87.883c0 19.379-15.767 35.146-35.146 35.146h-142.724c-19.379 0-35.146-15.766-35.146-35.146v-142.725c0-19.379 15.767-35.146 35.146-35.146h142.725c19.379 0 35.146 15.766 35.146 35.146v142.725zm48.919-78.874c-.387 2.448-.593 4.956-.593 7.512 0 2.547.204 5.047.588 7.488h-33.915v-15zm-26.212-65.25c1.989 0 3.896-.79 5.304-2.197l19.492-19.493c2.96 4.066 6.541 7.649 10.605 10.611l-23.885 23.885c-1.394 1.394-3.324 2.193-5.296 2.193h-13.927v-13.601c0-.469-.022-.933-.035-1.399h7.742zm5.304 147.707c-1.407-1.407-3.314-2.197-5.304-2.197h-7.742c.013-.462.035-.921.035-1.386v-13.614h13.927c1.972 0 3.902.799 5.296 2.193l23.894 23.894c-4.065 2.961-7.647 6.542-10.609 10.607zm58.277 80.638c-18.177 0-32.964-14.787-32.964-32.963s14.787-32.963 32.964-32.963c18.176 0 32.963 14.787 32.963 32.963s-14.787 32.963-32.963 32.963z"/><path d="m332.007 211.062-67.042-38.429c-2.311-1.324-5.148-1.324-7.459 0l-67.043 38.429c-2.318 1.329-3.751 3.79-3.767 6.46 0 .015-.005.029-.005.044v76.86c0 2.688 1.438 5.171 3.771 6.507l19.67 11.27c1.176.674 2.457.994 3.722.994 2.601 0 5.129-1.354 6.515-3.773 2.059-3.594.814-8.177-2.779-10.236l-15.898-9.109v-59.569l52.045 29.833v59.567l-10.315-5.912c-3.594-2.059-8.177-.815-10.236 2.778s-.816 8.177 2.777 10.236l21.55 12.35c1.155.662 2.442.993 3.729.993s2.575-.331 3.729-.993l67.04-38.43c2.332-1.337 3.771-3.819 3.771-6.507v-76.86c0-.022-.007-.043-.007-.065-.026-2.661-1.456-5.113-3.768-6.438zm-70.772-23.278 51.961 29.785-51.961 29.785-51.962-29.785zm7.5 132.131v-59.571l52.045-29.833v59.57z"/></g></svg>